<svg width="133" height="48" viewBox="0 0 133 48" fill="none" xmlns="http://www.w3.org/2000/svg">
<path d="M29.3708 48C21.0583 48 14.0851 45.6182 8.45104 40.8545C2.81701 36.0909 0 30.4 0 23.7818C0 17.2364 2.8401 11.6364 8.52031 6.98182C14.2005 2.32727 21.1507 0 29.3708 0C32.6958 0 35.9054 0.436364 38.9995 1.30909C42.0936 2.18182 44.8413 3.52727 47.2427 5.34545L60.1271 15.1636L54.3083 19.7455L41.9781 10.2545C40.3156 8.94546 38.3991 8 36.2286 7.41818C34.0582 6.83636 31.7722 6.54545 29.3708 6.54545C23.4597 6.54545 18.4722 8.23637 14.4083 11.6182C10.3444 15 8.3125 19.0545 8.3125 23.7818C8.3125 28.5818 10.3444 32.7273 14.4083 36.2182C18.4722 39.7091 23.4597 41.4545 29.3708 41.4545C31.6799 41.4545 33.9196 41.1636 36.0901 40.5818C38.2606 40 40.2233 39.0909 41.9781 37.8545L85.7573 5.34545C88.1587 3.52727 90.9064 2.18182 94.0005 1.30909C97.0946 0.436364 100.258 0 103.491 0C111.711 0 118.684 2.32727 124.41 6.98182C130.137 11.6364 133 17.2364 133 23.7818C133 30.4 130.16 36.0909 124.48 40.8545C118.799 45.6182 111.803 48 103.491 48C100.258 48 97.0715 47.5818 93.9313 46.7455C90.791 45.9091 88.0663 44.5818 85.7573 42.7636L73.15 32.9455L78.9688 28.3636L91.0219 37.8545C92.592 39.0909 94.4854 40 96.7021 40.5818C98.9188 41.1636 101.182 41.4545 103.491 41.4545C109.494 41.4545 114.528 39.7091 118.592 36.2182C122.656 32.7273 124.688 28.5818 124.688 23.7818C124.688 19.0545 122.632 15 118.522 11.6182C114.412 8.23637 109.402 6.54545 103.491 6.54545C101.182 6.54545 98.9418 6.87273 96.7713 7.52727C94.6009 8.18182 92.6844 9.12727 91.0219 10.3636L69.1323 26.6182L47.2427 42.8727C44.8413 44.6182 42.0705 45.9091 38.9302 46.7455C35.7899 47.5818 32.6035 48 29.3708 48Z" fill="white"/>
</svg>
