<svg width="59" height="63" viewBox="0 0 59 63" fill="none" xmlns="http://www.w3.org/2000/svg">
<path d="M17.699 63C16.1991 63 14.9242 62.4481 13.8742 61.3442C12.8243 60.2403 12.2993 58.8999 12.2993 57.3229C12.2993 55.7459 12.8243 54.4055 13.8742 53.3016C14.9242 52.1978 16.1991 51.6458 17.699 51.6458C19.1489 51.6458 20.4113 52.1978 21.4863 53.3016C22.5612 54.4055 23.0987 55.7459 23.0987 57.3229C23.0987 58.8999 22.5737 60.2403 21.5238 61.3442C20.4738 62.4481 19.1989 63 17.699 63ZM47.6973 63C46.1974 63 44.9225 62.4481 43.8725 61.3442C42.8226 60.2403 42.2976 58.8999 42.2976 57.3229C42.2976 55.7459 42.8226 54.4055 43.8725 53.3016C44.9225 52.1978 46.1974 51.6458 47.6973 51.6458C49.1472 51.6458 50.4097 52.1978 51.4846 53.3016C52.5595 54.4055 53.097 55.7459 53.097 57.3229C53.097 58.8999 52.572 60.2403 51.5221 61.3442C50.4722 62.4481 49.1972 63 47.6973 63ZM13.7992 10.96L22.0488 28.9374H43.6475L53.022 10.96H13.7992ZM11.5493 6.22904H55.7219C57.3218 6.22904 58.3342 6.74155 58.7592 7.76658C59.1842 8.79162 59.0467 9.93492 58.3467 11.1965L48.2223 30.3567C47.7223 31.2503 47.0223 32.0257 46.1224 32.6827C45.2224 33.3398 44.2475 33.6683 43.1976 33.6683H20.4738L16.2741 41.8686H53.097V46.5995H16.949C14.8492 46.5995 13.3367 45.8636 12.4118 44.3917C11.4868 42.9199 11.4994 41.2641 12.4493 39.4243L17.249 30.1202L5.84967 4.73091H0V0H8.7745L11.5493 6.22904Z" fill="white"/>
</svg>
